<?xml version="1.0" standalone="no"?>
<!DOCTYPE svg PUBLIC "-//W3C//DTD SVG 20010904//EN"
 "http://www.w3.org/TR/2001/REC-SVG-20010904/DTD/svg10.dtd">
<svg version="1.0" xmlns="http://www.w3.org/2000/svg"
 width="750.000000pt" height="749.000000pt" viewBox="0 0 750.000000 749.000000"
 preserveAspectRatio="xMidYMid meet">

<g transform="translate(0.000000,749.000000) scale(0.100000,-0.100000)"
fill="#000000" stroke="none">
<path d="M5170 5193 c-30 -6 -42 -22 -30 -42 5 -10 28 -15 76 -17 205 -6 350
-136 398 -356 4 -19 13 -28 27 -28 30 0 34 27 16 98 -47 180 -199 315 -384
342 -38 5 -70 9 -73 8 -3 0 -16 -3 -30 -5z"/>
<path d="M1963 4840 c-166 -59 -279 -200 -305 -379 -14 -94 -7 -131 26 -131
22 0 23 4 28 84 5 67 12 99 38 155 52 113 171 210 279 227 51 8 76 26 68 48
-9 22 -66 20 -134 -4z"/>
<path d="M5230 4854 c-92 -32 -147 -88 -175 -179 -9 -28 -20 -5 -30 59 -11 80
-10 79 -84 72 -36 -4 -83 -9 -105 -12 -38 -6 -38 -7 -32 -43 6 -32 50 -430 76
-680 6 -52 12 -96 14 -98 9 -9 239 22 243 33 2 6 -5 96 -16 199 -27 247 -27
293 2 336 30 45 98 79 159 79 l49 0 -6 48 c-4 26 -10 79 -13 117 -7 69 -7 70
-37 72 -16 1 -37 0 -45 -3z"/>
<path d="M4353 4760 c-56 -12 -129 -44 -170 -76 l-33 -25 31 -32 c17 -18 44
-56 59 -85 l27 -51 16 34 c43 89 187 99 245 17 19 -26 40 -102 29 -102 -19 0
-217 -21 -239 -26 -22 -4 -27 -10 -24 -27 3 -12 5 -50 5 -85 l1 -63 53 7 c28
4 142 17 252 28 l200 21 -2 65 c-2 36 -8 88 -14 115 -27 120 -121 236 -217
270 -58 20 -162 27 -219 15z"/>
<path d="M2395 4713 c-38 -8 -106 -32 -150 -53 -85 -42 -189 -125 -179 -142 4
-6 2 -8 -4 -4 -13 8 -44 -35 -82 -117 -121 -258 -40 -599 177 -749 100 -68
255 -105 392 -93 134 11 311 61 311 86 0 6 -7 36 -16 66 -13 44 -19 53 -32 47
-244 -106 -497 -41 -596 155 -100 196 -65 433 80 561 89 78 260 124 383 104
69 -11 67 -14 77 75 l6 59 -38 11 c-55 15 -246 12 -329 -6z"/>
<path d="M3801 4694 c-64 -23 -113 -57 -153 -105 l-36 -43 -13 58 -13 58 -55
-6 c-31 -4 -75 -9 -99 -13 l-43 -5 42 -22 c93 -46 184 -171 208 -284 6 -29 11
-90 11 -135 0 -147 -39 -244 -133 -334 l-53 -51 17 -161 c9 -89 18 -163 20
-165 8 -7 231 22 239 30 5 5 1 84 -11 189 -11 99 -18 188 -17 198 3 18 4 18
27 -2 68 -59 207 -68 311 -18 66 31 138 100 169 162 24 49 51 161 50 215 0 66
-27 185 -54 243 -33 70 -111 150 -174 179 -60 29 -178 35 -240 12z m115 -215
c51 -31 85 -107 92 -205 6 -99 -12 -159 -59 -198 -42 -35 -104 -51 -149 -37
-19 6 -38 9 -42 8 -4 -1 -22 17 -39 41 -26 36 -34 59 -44 135 -7 51 -14 97
-15 102 -2 6 -1 17 3 25 3 8 8 27 11 42 4 15 20 43 36 62 50 56 138 67 206 25z"/>
<path d="M3104 4625 c-73 -16 -156 -55 -203 -94 l-33 -29 41 -37 c38 -34 101
-142 101 -172 0 -7 5 -13 10 -13 6 0 10 10 10 23 1 35 36 104 63 122 69 45
154 38 200 -17 69 -82 94 -261 50 -359 -66 -146 -247 -120 -298 43 l-14 43 0
-41 c-1 -56 -34 -160 -66 -206 -14 -20 -25 -40 -25 -43 0 -3 29 -19 63 -36
158 -74 376 -35 504 90 194 189 142 564 -94 689 -99 51 -192 63 -309 37z"/>
<path d="M2546 4380 c-79 -25 -122 -115 -113 -240 8 -123 53 -204 129 -235 51
-20 103 -7 145 37 39 43 53 85 53 168 0 180 -100 306 -214 270z"/>
<path d="M4282 4116 c-7 -28 -26 -73 -42 -100 -37 -59 -33 -64 72 -91 122 -32
373 0 461 58 l25 16 -22 71 c-12 38 -25 72 -28 76 -3 3 -37 -4 -75 -16 -84
-26 -213 -36 -269 -21 -23 6 -57 22 -76 34 l-34 24 -12 -51z"/>
<path d="M5312 3760 c-53 -32 -125 -158 -221 -386 -27 -65 -62 -152 -76 -193
-56 -156 -143 -271 -205 -271 -32 0 20 178 106 359 30 63 54 118 54 122 0 12
-53 11 -85 -1 -14 -5 -37 -22 -50 -36 l-25 -27 -22 28 c-26 33 -75 55 -123 55
-106 0 -224 -116 -291 -286 -41 -105 -79 -172 -141 -249 -56 -69 -105 -105
-143 -105 -35 0 -50 19 -57 67 -6 50 5 77 65 148 227 274 377 564 349 677 -9
33 -26 39 -82 29 -104 -19 -209 -142 -333 -389 -101 -200 -133 -286 -141 -386
l-6 -79 -64 -43 c-70 -48 -97 -54 -132 -25 -22 18 -24 27 -24 100 l1 81 56 58
c175 180 339 453 341 568 0 53 -11 64 -66 64 -142 0 -318 -230 -453 -593 -41
-111 -57 -135 -101 -154 -44 -18 -56 -8 -43 37 16 57 12 160 -9 205 -31 68
-50 79 -152 83 -82 3 -96 1 -145 -23 -124 -61 -212 -252 -185 -401 43 -232
281 -259 407 -46 10 18 25 32 34 32 23 0 113 45 129 63 21 26 31 20 31 -20 0
-52 35 -118 77 -144 65 -41 171 -24 245 39 68 57 65 57 83 22 36 -69 121 -88
210 -47 53 25 132 104 181 181 16 25 32 46 35 46 4 0 10 -16 13 -35 9 -49 71
-111 119 -120 50 -10 121 26 163 82 l32 42 24 -34 c63 -93 170 -63 256 72 30
47 42 54 42 23 0 -35 39 -100 73 -120 71 -44 171 -12 278 88 176 165 233 418
122 534 -40 41 -84 46 -143 15 -28 -14 -50 -23 -50 -19 0 4 36 76 80 161 43
85 77 158 74 163 -10 15 -79 8 -112 -12z m-961 -263 c-25 -73 -97 -203 -183
-329 -78 -114 -94 -126 -62 -47 82 201 249 488 262 450 2 -6 -6 -40 -17 -74z
m-396 -44 c-53 -116 -208 -353 -222 -339 -10 9 139 293 189 361 60 81 76 71
33 -22z m1445 -72 c32 -61 -10 -241 -84 -353 -43 -66 -108 -111 -145 -101 -28
7 -45 56 -37 106 12 74 55 208 80 252 39 65 99 115 141 115 24 0 37 -6 45 -19z
m-672 -63 c17 -17 15 -96 -4 -153 -9 -26 -39 -76 -65 -112 -27 -35 -49 -67
-49 -70 0 -3 12 -2 26 1 l26 7 -21 -30 c-26 -36 -85 -74 -108 -69 -10 2 -24
17 -32 33 -32 67 48 307 124 374 37 32 81 41 103 19z m-1446 -179 c28 -15 48
-69 48 -132 0 -53 0 -54 -29 -49 -38 5 -98 -48 -107 -95 -6 -28 -2 -37 27 -64
l34 -31 -35 -29 c-63 -53 -124 -48 -156 13 -35 68 1 242 67 322 55 66 107 89
151 65z"/>
<path d="M2220 3485 c-6 -17 -10 -61 -8 -100 4 -79 28 -138 83 -202 l35 -41
-38 -64 c-66 -108 -95 -192 -100 -289 -6 -115 14 -176 78 -240 57 -57 122 -76
207 -60 176 34 343 208 343 358 0 90 -49 153 -119 153 -98 0 -168 -100 -130
-184 l12 -25 21 42 c11 22 33 50 48 60 25 19 29 19 51 4 34 -22 41 -59 23
-121 -33 -112 -125 -186 -230 -186 -108 0 -152 60 -143 195 5 79 20 130 73
241 l24 51 58 -13 c244 -58 502 86 502 278 0 68 -22 106 -77 130 -53 23 -123
19 -208 -13 -64 -24 -185 -102 -251 -162 -29 -26 -55 -47 -58 -47 -4 0 -21 10
-37 23 -45 33 -96 106 -123 178 l-24 64 -12 -30z m698 -71 c36 -25 30 -75 -15
-125 -44 -49 -108 -82 -186 -99 -66 -13 -177 -5 -177 14 0 6 26 39 59 73 118
124 254 183 319 137z"/>
<path d="M5788 3085 c-7 -103 -44 -190 -112 -263 -53 -56 -142 -108 -204 -118
-52 -8 -77 -26 -69 -48 15 -37 144 -5 246 62 58 39 132 129 163 202 24 55 44
185 34 223 -5 20 -13 27 -30 27 -22 0 -23 -4 -28 -85z"/>
<path d="M1833 2733 c-10 -26 24 -142 60 -202 43 -72 129 -148 205 -183 93
-42 253 -57 265 -24 10 27 -11 38 -79 41 -212 11 -349 134 -398 358 -7 31 -42
38 -53 10z"/>
</g>
</svg>
